HIERARCHY
ROOT Hips
{
  OFFSET 144.549 97.6709 51.556
  CHANNELS 6 Xposition Yposition Zposition Zrotation Xrotation Yrotation
  JOINT RightUpLeg
  {
    OFFSET -8.9458 -8.66707 0.101652
    CHANNELS 3 Zrotation Xrotation Yrotation
    JOINT RightLeg
    {
      OFFSET 0 -44.4227 1.3727
      CHANNELS 3 Zrotation Xrotation Yrotation
      JOINT RightFoot
      {
        OFFSET 0.253549 -42.0924 -1.46059
        CHANNELS 3 Zrotation Xrotation Yrotation
        JOINT RightToes
        {
          OFFSET 0.04 -4.41509 8.4991
          CHANNELS 3 Zrotation Xrotation Yrotation
          End Site
          {
            OFFSET -0.08 -0.137448 9.77979
          }
        }
      }
    }
  }
  JOINT Spine
  {
    OFFSET 0 11.8905 0
    CHANNELS 3 Zrotation Xrotation Yrotation
    JOINT Spine1
    {
      OFFSET 0 25.6574 0.127663
      CHANNELS 3 Zrotation Xrotation Yrotation
      JOINT HEad
      {
        OFFSET 0 8.73416 0.011341
        CHANNELS 3 Zrotation Xrotation Yrotation
        End Site
        {
          OFFSET -0.29 12.7742 2.51395
        }
      }
      JOINT LeftShoulder1
      {
        OFFSET 8.99 -0.362252 -0.22
        CHANNELS 3 Zrotation Xrotation Yrotation
        JOINT LeftArm
        {
          OFFSET 10.2827 -0.00338 0.322123
          CHANNELS 3 Zrotation Xrotation Yrotation
          JOINT LeftForeArm
          {
            OFFSET 32.7669 0.099144 -1.42434
            CHANNELS 3 Zrotation Xrotation Yrotation
            JOINT LeftHand
            {
              OFFSET 27.5643 0.085362 1.02216
              CHANNELS 3 Zrotation Xrotation Yrotation
              End Site
              {
                OFFSET 16.7443 -0.6 1.50291
              }
            }
          }
        }
      }
      JOINT RightShoulder
      {
        OFFSET -8.99 -0.362252 -0.22
        CHANNELS 3 Zrotation Xrotation Yrotation
        JOINT RightArm
        {
          OFFSET -10.2827 -0.00338 0.322123
          CHANNELS 3 Zrotation Xrotation Yrotation
          JOINT RightForeArm
          {
            OFFSET -32.8971 0.099144 -1.42434
            CHANNELS 3 Zrotation Xrotation Yrotation
            JOINT RightHand
            {
              OFFSET -27.4921 0.085362 1.02216
              CHANNELS 3 Zrotation Xrotation Yrotation
              End Site
              {
                OFFSET -16.6312 -0.6 1.50291
              }
            }
          }
        }
      }
    }
  }
  JOINT LeftUpLeg
  {
    OFFSET 8.9458 -8.66707 0.101652
    CHANNELS 3 Zrotation Xrotation Yrotation
    JOINT LeftLeg
    {
      OFFSET 0 -44.4227 1.3727
      CHANNELS 3 Zrotation Xrotation Yrotation
      JOINT LeftFoot
      {
        OFFSET -0.253549 -42.0924 -1.46059
        CHANNELS 3 Zrotation Xrotation Yrotation
        JOINT LeftToes
        {
          OFFSET -0.04 -4.41509 8.4991
          CHANNELS 3 Zrotation Xrotation Yrotation
          End Site
          {
            OFFSET 0.08 -0.047448 9.77979
          }
        }
      }
    }
  }
}
MOTION
Frames:	20
Frame Time:	0.0166667
128.761 97.8954 106.62 -3.05094 -3.9392 142.619 -15.5311 -8.38176 -3.02344 6.70068 36.8257 -9.96151 6.60118 -13.8369 0.149367 -14.6333 -22.9061 -8.75435 -2.00291 4.52806 2.86113 -0.620041 8.60247 5.81968 -10.46 -1.86347 21.3181 3.18055e-015 1.59028e-015 3.18055e-015 -59.682 -62.6428 -24.67 -37.8181 39.2295 -66.1859 15.07 4.82289 -34.7448 19.7926 5.99877 24.4437 57.6247 -17.4172 41.4903 -17.119 28.8238 139.597 -10.9873 13.7626 -46.2974 18.9287 -32.6605 8.89676 -6.47127 47.3782 -2.34787 -20.7356 1.25104 1.60557 8.27895 -10.1153 3.76871 
127.899 97.0869 105.992 -3.19491 -3.31278 142.496 -16.9474 -7.07379 -2.24688 7.96089 35.8186 -11.3264 5.50577 -14.7559 0.128401 -15.6537 -24.1179 -9.54646 -2.02633 4.79429 2.88219 -0.588719 9.1102 5.86227 -10.5705 -2.92113 21.3629 8.82781e-032 1.59028e-015 -3.18055e-015 -60.3885 -61.4545 -23.4708 -37.3254 40.3018 -69.4081 15.0234 4.85262 -34.6527 19.1855 5.78849 24.1657 58.4389 -17.9115 42.4281 -17.0933 29.5269 139.59 -11.071 13.7944 -46.3 20.2328 -34.9928 10.0392 -7.05052 51.6476 -5.68357 -22.9687 5.4434 2.60426 11.0964 -14.3635 1.07139 
126.95 96.391 105.175 -3.3223 -2.79455 141.933 -18.6026 -6.11733 -1.73908 9.01191 34.6569 -11.968 4.31646 -14.9257 0.0587133 -16.7502 -25.4294 -10.1695 -1.96932 5.07718 3.02625 -0.533573 9.67534 6.14511 -10.8487 -4.1882 21.5131 -1.76556e-031 -3.18055e-015 -3.18055e-015 -59.586 -59.538 -20.468 -35.2153 41.3931 -75.2793 14.9313 4.97179 -34.0359 18.3746 5.50344 23.7492 59.3226 -18.1409 43.4207 -16.8727 30.436 139.379 -11.3027 13.8567 -46.0595 21.7145 -37.0247 10.9475 -7.34615 55.3084 -8.71193 -25.2481 9.18859 3.68255 12.5743 -17.4986 -2.54212 
125.92 95.8394 104.194 -3.45156 -2.33862 140.873 -20.4913 -5.6393 -1.58612 9.84519 33.6202 -11.8489 3.13957 -14.0945 -0.0352213 -18.0397 -26.9641 -10.7532 -1.96916 5.36098 3.28125 -0.488528 10.248 6.62898 -11.2289 -5.44393 21.8399 -1.59028e-015 4.77083e-015 -3.18055e-015 -57.6094 -57.3397 -16.3039 -31.2203 42.2573 -83.3908 14.786 5.21067 -32.6692 17.4761 5.18372 23.2292 60.1643 -18.0853 44.3229 -16.4152 31.5565 138.904 -11.7068 13.9509 -45.5266 23.1735 -38.4863 11.2888 -7.63539 58.045 -10.7103 -26.8876 11.8907 4.55726 12.8363 -19.2723 -6.31238 
124.835 95.4212 103.092 -3.57646 -1.91386 139.384 -22.4941 -5.68902 -1.79138 10.4051 32.9567 -11.0462 2.17252 -12.399 -0.112064 -19.4511 -28.6142 -11.3241 -2.06402 5.62205 3.59545 -0.481006 10.7645 7.23065 -11.6127 -6.46688 22.3741 -0 0 9.54166e-015 -54.7263 -55.3773 -11.5526 -25.6327 42.3943 -92.7475 14.4744 5.6001 -30.5312 16.6382 4.88021 22.6739 60.8307 -17.7677 44.9627 -15.7028 32.8141 138.148 -12.2513 14.0614 -44.7171 24.4295 -39.2338 10.8643 -8.08432 59.6695 -11.1874 -27.2605 13.4024 4.97775 12.5563 -20.0044 -9.18165 
123.732 95.1111 101.885 -3.68234 -1.50065 137.612 -24.4424 -6.17044 -2.23227 10.5955 32.7275 -9.70001 1.60933 -10.2637 -0.152011 -20.6847 -30.0316 -11.7801 -2.24081 5.81686 3.91986 -0.509026 11.1481 7.84176 -11.918 -7.07127 23.1086 1.59028e-015 -3.18055e-015 6.36111e-015 -50.9167 -54.4409 -6.45032 -19.6582 41.7156 -101.532 13.796 6.13065 -27.9955 16.0112 4.64207 22.1692 61.1824 -17.2338 45.1806 -14.7607 34.0528 137.152 -12.8478 14.1608 -43.7224 25.2957 -39.1976 9.65438 -8.46811 60.0511 -10.196 -26.1824 13.8701 4.87528 12.2033 -20.0264 -10.5673 
122.65 94.8625 100.574 -3.73285 -1.12177 135.764 -26.1445 -6.90754 -2.67804 10.3647 32.872 -8.0356 1.53324 -8.21896 -0.167902 -21.3525 -30.7926 -12.005 -2.39708 5.9025 4.194 -0.519423 11.3274 8.34698 -12.1249 -7.13265 24.012 -1.59028e-015 -3.18055e-015 -6.36111e-015 -45.7366 -55.2774 -0.798794 -14.7714 40.8642 -107.816 12.6643 6.71175 -25.7546 15.7211 4.50722 21.7946 61.0954 -16.5203 44.869 -13.6775 35.062 136.025 -13.3723 14.2218 -42.7022 25.6819 -38.4148 7.84773 -8.21988 59.1613 -8.41064 -24.0265 13.555 4.38931 11.8097 -19.3645 -10.4827 
121.617 94.6299 99.1483 -3.69051 -0.829283 134.073 -27.4551 -7.67972 -2.86005 9.76147 33.2245 -6.35409 1.88174 -6.6359 -0.18194 -21.2143 -30.616 -12.0176 -2.40864 5.84941 4.36045 -0.422139 11.2519 8.63967 -12.2873 -6.60852 25.0459 5.29669e-031 -3.18055e-015 9.54166e-015 -38.4724 -58.0145 5.87795 -11.8565 40.7612 -110.363 11.2962 7.21361 -24.3963 15.8588 4.49957 21.5998 60.4826 -15.6246 43.9933 -12.6029 35.6197 134.925 -13.694 14.2272 -41.8534 25.5964 -36.9951 5.78503 -6.78898 57.06 -6.81076 -21.5203 12.7814 3.76937 11.2449 -18.0013 -9.27634 
120.65 94.3758 97.6009 -3.53177 -0.682468 132.768 -28.3043 -8.28007 -2.57599 8.91952 33.6181 -4.99085 2.50923 -5.61396 -0.203359 -20.3015 -29.4775 -12.0085 -2.1864 5.64761 4.37388 -0.125634 10.9014 8.63506 -12.4992 -5.55246 26.1721 -8.82781e-032 1.59028e-015 3.18055e-015 -28.7553 -61.7801 13.8187 -11.0417 41.7277 -108.747 10.1404 7.55413 -23.8807 16.4757 4.62951 21.5896 59.3121 -14.4862 42.5878 -11.7166 35.5206 134.03 -13.6904 14.1672 -41.3746 25.1194 -35.0971 3.85486 -4.02227 53.8744 -6.21148 -19.3614 11.9097 3.2326 10.5625 -16.2781 -7.39251 
119.762 94.0737 95.9353 -3.25401 -0.724172 132.057 -28.6923 -8.56417 -1.76004 7.99752 33.9839 -4.25032 3.26621 -5.02784 -0.229885 -18.849 -27.5829 -12.2368 -1.70869 5.30342 4.209 0.42026 10.2817 8.28441 -12.8262 -4.11375 27.339 1.59028e-015 1.59028e-015 3.18055e-015 -17.6714 -65.241 22.0445 -12.04 43.2381 -103.137 9.66919 7.70983 -23.4237 17.5745 4.89268 21.7227 57.6335 -12.9951 40.7358 -11.1745 34.5883 133.492 -13.2435 14.0269 -41.4331 24.3664 -32.9109 2.37502 -0.264285 49.7768 -6.96721 -17.9332 11.2328 2.88212 10.1224 -14.9269 -5.24551 
118.967 93.7134 94.1726 -2.87819 -0.964896 132.121 -28.6672 -8.46594 -0.484201 7.13597 34.3716 -4.35655 4.0391 -4.63763 -0.258988 -17.13 -25.2417 -12.9034 -1.0311 4.8338 3.86686 1.19204 9.4159 7.58917 -13.2368 -2.51654 28.4471 -8.82781e-032 1.59028e-015 3.18055e-015 -8.11407 -67.7363 28.0182 -14.5119 44.468 -94.1794 10.2754 7.68458 -22.0068 19.0842 5.26484 21.9262 55.6125 -11.0401 38.5543 -11.0596 32.6863 133.409 -12.2431 13.7734 -42.1334 23.455 -30.6599 1.49987 3.82574 45.007 -8.97706 -17.2622 10.8539 2.71489 10.3961 -14.6827 -3.18182 
118.28 93.3105 92.3529 -2.44844 -1.37871 133.112 -28.3032 -7.98069 1.09423 6.46141 34.8861 -5.4431 4.74736 -4.17301 -0.294036 -15.3423 -22.738 -14.0965 -0.278647 4.26407 3.37781 2.08292 8.34045 6.61011 -13.5682 -1.0207 29.3147 -3.18055e-015 -7.95139e-016 9.54166e-015 -3.03392 -69.5277 29.302 -18.1947 44.7462 -82.9204 12.204 7.51805 -19.2863 20.837 5.69716 22.1237 53.5451 -8.60065 36.1942 -11.3577 29.762 133.808 -10.6238 13.3556 -43.4741 22.4679 -28.6061 1.19764 7.58892 39.9171 -11.9111 -17.142 10.6733 2.66928 11.6603 -15.8879 -1.46922 
117.722 92.8973 90.5375 -2.0183 -1.9258 135.151 -27.6647 -7.15628 2.79438 6.11502 35.6489 -7.56403 5.32768 -3.42146 -0.341874 -13.5605 -20.2375 -15.7995 0.428204 3.62855 2.78819 2.92994 7.10707 5.46336 -13.5513 0.1203 29.6725 -7.95139e-016 0 -1.27222e-014 -16.7879 -62.3529 11.6805 -18.7822 33.4776 -74.5931 15.2279 7.51739 -14.432 22.5865 6.1235 22.2645 51.7848 -5.83859 33.8435 -11.958 25.9159 134.65 -8.4391 12.7305 -45.3131 21.4465 -27.0479 1.31151 10.6175 34.9604 -15.4639 -17.2939 10.5015 2.66914 13.8323 -18.4012 -0.309356 
117.311 92.5341 88.7742 -1.6572 -2.55098 138.296 -26.8298 -6.01912 4.45898 6.23751 36.6272 -10.6543 5.74288 -2.22119 -0.409616 -11.7484 -17.7732 -17.9099 0.93077 2.96576 2.17848 3.54268 5.78857 4.30806 -12.8983 0.683124 29.2035 -7.95139e-016 7.95139e-016 -6.36111e-015 -25.662 -53.2132 -0.798804 -19.183 20.412 -67.6023 18.6161 7.31615 -12.1505 24.0807 6.47998 22.3343 50.5961 -3.13777 31.7188 -12.675 21.4745 135.875 -5.92764 11.9151 -47.378 20.3254 -26.2161 1.64736 12.8123 30.5083 -19.4314 -17.4796 10.2329 2.65978 16.517 -21.7655 0.136066 
117.059 92.2689 87.0982 -1.41997 -3.22498 142.53 -25.8422 -4.6113 5.95302 6.9191 37.7194 -14.4988 6.00257 -0.543047 -0.498759 -9.82281 -15.3126 -20.2452 1.14398 2.32287 1.64236 3.7617 4.48332 3.33093 -11.4255 0.475782 27.6174 -1.59028e-015 -2.38542e-015 -0 -31.49 -46.275 -9.45203 -20.1329 9.67795 -62.4255 21.3712 6.51426 -14.2808 25.1296 6.72061 22.3402 50.049 -1.04189 30.0529 -13.2894 17.0059 137.451 -3.50206 11.0308 -49.3637 18.9885 -26.2294 2.04271 14.3104 26.746 -23.7354 -17.6021 9.89576 2.62958 19.1895 -25.4465 -0.246026 
116.971 92.1233 85.527 -1.33413 -3.94706 147.744 -24.7029 -2.99327 7.15225 8.11989 38.7888 -18.7014 6.1905 1.51115 -0.607574 -7.75901 -12.8687 -22.5562 1.05832 1.75126 1.28697 3.49333 3.30702 2.73765 -9.17452 -0.658144 24.7298 0 0 -0 -37.4761 -43.0552 -16.6713 -22.3834 3.59925 -59.7308 22.6506 5.13821 -20.0836 25.6106 6.81564 22.2877 50.059 -0.103472 29.0896 -13.6188 13.2231 139.368 -1.61895 10.2785 -51.0653 17.2867 -27.0391 2.35958 15.3647 23.6256 -28.3583 -17.7225 9.593 2.60343 21.3831 -28.9757 -1.46308 
117.043 92.0996 84.0564 -1.39068 -4.73108 153.718 -23.379 -1.22955 7.94656 9.63256 39.6818 -22.7261 6.45302 3.75449 -0.73958 -5.66789 -10.5606 -24.5568 0.716001 1.29845 1.22986 2.72049 2.37193 2.74155 -6.48407 -2.79096 20.5102 3.97569e-016 -1.59028e-015 -6.36111e-015 -45.5341 -43.4827 -23.4399 -26.6257 3.63703 -59.3521 21.8247 3.8113 -27.7224 25.4307 6.74117 22.1697 50.5228 -0.681562 29.0701 -13.6157 10.7501 141.528 -0.569725 9.82978 -52.4423 15.0837 -28.4088 2.44853 16.2121 20.912 -33.2297 -17.9736 9.41506 2.61514 22.8076 -31.9801 -3.35609 
117.259 92.1852 82.6714 -1.53755 -5.59187 160.144 -21.8186 0.599051 8.26246 11.1523 40.2964 -26.042 6.94788 5.92359 -0.905389 -3.75415 -8.55035 -25.9663 0.198951 0.994645 1.57356 1.5141 1.75242 3.52483 -3.95888 -5.79855 15.0845 3.97569e-016 0 -1.59028e-015 -56.2459 -46.3041 -29.8089 -32.524 10.1034 -59.6972 18.9133 3.36115 -35.1364 24.5133 6.47919 21.9724 51.4035 -2.807 30.1838 -13.4311 9.88767 143.585 -0.346824 9.72731 -53.5468 12.3541 -29.9799 2.15847 16.9658 18.3226 -38.1328 -18.424 9.3933 2.68019 23.4217 -34.1917 -5.5528 
117.597 92.3536 81.3575 -1.70812 -6.51906 166.67 -20.0104 2.38457 8.10034 12.4376 40.6281 -28.3199 7.77359 7.672 -1.1097 -2.16927 -6.90478 -26.5577 -0.416585 0.844026 2.36857 0.0180539 1.45387 5.16289 -2.28728 -9.23799 8.71121 2.98177e-016 -1.59028e-015 -0 -67.6407 -49.1975 -34.4924 -38.6595 20.7206 -59.5679 15.0329 3.97338 -40.7376 22.8611 6.038 21.6933 52.6685 -6.3247 32.4879 -13.3402 10.6621 144.878 -0.787088 9.92652 -54.356 9.23944 -31.384 1.41507 17.5933 15.6554 -42.6928 -18.9953 9.51531 2.78645 23.4536 -35.4987 -7.48269 
118.031 92.572 80.1017 -1.8405 -7.47743 172.961 -18.0163 4.02426 7.54009 13.4385 40.7215 -29.5472 8.89654 8.63011 -1.32775 -0.88223 -5.50251 -26.2216 -1.05095 0.818026 3.56895 -1.57367 1.40405 7.54988 -1.92644 -12.3446 1.78873 9.93923e-017 1.59028e-015 -0 -75.0725 -49.6951 -34.906 -42.7801 31.2745 -60.7267 11.7563 4.94595 -44.2476 20.642 5.47231 21.3568 54.2374 -11.3855 35.8818 -13.5317 13.3256 144.553 -1.9939 10.4839 -54.5897 6.03843 -32.3611 0.309407 17.9939 12.8466 -46.5068 -19.4951 9.73981 2.89984 23.2803 -35.9429 -8.51939 
